<svg width="24" height="24" viewBox="0 0 24 24" fill="none" xmlns="http://www.w3.org/2000/svg">
<path d="M10.53 10.73C10.43 10.42 10.34 10.12 10.24 9.81C10.14 9.5 10.05 9.21 9.97 8.92C9.89 8.64 9.82 8.38 9.75 8.14H9.73C9.64 8.57 9.53 9 9.39 9.43C9.24 9.91 9.09 10.41 8.93 10.91C8.79 11.42 8.64 11.89 8.49 12.31H11.03C10.97 12.099 10.89 11.85 10.8 11.589C10.71 11.32 10.62 11.03 10.53 10.73V10.73ZM19.75 0.299999H4.25C1.9 0.299999 0 2.2 0 4.55V19.45C0 21.8 1.9 23.7 4.25 23.7H19.75C22.1 23.7 24 21.8 24 19.45V4.55C24 2.2 22.1 0.299999 19.75 0.299999ZM14.7 16.83H12.609C12.54 16.84 12.47 16.79 12.45 16.72L11.63 14.34H7.91L7.15 16.69C7.13 16.78 7.05 16.84 6.96 16.831H5.08C4.97 16.831 4.94 16.77 4.97 16.651L8.19 7.38C8.22 7.28 8.25 7.17 8.29 7.05C8.33 6.84 8.35 6.62 8.35 6.4C8.34 6.35 8.38 6.3 8.43 6.29H11.02C11.1 6.29 11.14 6.32 11.15 6.37L14.8 16.67C14.83 16.779 14.8 16.83 14.7 16.83V16.83ZM18.1 16.68C18.1 16.79 18.061 16.84 17.971 16.84H16.01C15.91 16.84 15.86 16.779 15.86 16.68V8.98C15.86 8.88 15.901 8.84 15.991 8.84H17.971C18.061 8.84 18.1 8.89 18.1 8.98V16.68V16.68ZM17.891 7.65C17.66 7.89 17.32 8.02 16.98 8C16.65 8.01 16.33 7.88 16.089 7.65C15.859 7.4 15.739 7.07 15.749 6.73C15.739 6.39 15.869 6.07 16.108 5.84C16.35 5.61 16.67 5.49 17 5.49C17.391 5.49 17.689 5.61 17.91 5.84C18.13 6.08 18.25 6.4 18.24 6.73C18.25 7.07 18.13 7.4 17.891 7.65V7.65Z" fill="#300000"/>
</svg>
