<svg width="24" height="24" viewBox="0 0 24 24" fill="none" xmlns="http://www.w3.org/2000/svg">
<path d="M10.53 10.73C10.43 10.42 10.34 10.12 10.24 9.80999C10.14 9.49999 10.05 9.20999 9.97 8.91999C9.89 8.63999 9.82 8.37999 9.75 8.13999H9.73C9.64 8.56999 9.53 8.99999 9.39 9.42999C9.24 9.90999 9.09 10.41 8.93 10.91C8.79 11.42 8.64 11.89 8.49 12.31H11.03C10.97 12.099 10.89 11.85 10.8 11.589C10.71 11.32 10.62 11.03 10.53 10.73ZM19.75 0.299988H4.25C1.9 0.299988 0 2.19999 0 4.54999V19.45C0 21.8 1.9 23.7 4.25 23.7H19.75C22.1 23.7 24 21.8 24 19.45V4.54999C24 2.19999 22.1 0.299988 19.75 0.299988ZM14.7 16.83H12.609C12.54 16.84 12.47 16.79 12.45 16.72L11.63 14.34H7.91L7.15 16.69C7.13 16.78 7.05 16.84 6.96 16.831H5.08C4.97 16.831 4.94 16.77 4.97 16.651L8.19 7.37999C8.22 7.27999 8.25 7.16999 8.29 7.04999C8.33 6.83999 8.35 6.61999 8.35 6.39999C8.34 6.34999 8.38 6.29999 8.43 6.28999H11.02C11.1 6.28999 11.14 6.31999 11.15 6.36999L14.8 16.67C14.83 16.779 14.8 16.83 14.7 16.83ZM18.1 16.68C18.1 16.79 18.061 16.84 17.971 16.84H16.01C15.91 16.84 15.86 16.779 15.86 16.68V8.97999C15.86 8.87999 15.901 8.83999 15.991 8.83999H17.971C18.061 8.83999 18.1 8.88999 18.1 8.97999V16.68ZM17.891 7.64999C17.66 7.88999 17.32 8.01999 16.98 7.99999C16.65 8.00999 16.33 7.87999 16.089 7.64999C15.859 7.39999 15.739 7.06999 15.749 6.72999C15.739 6.38999 15.869 6.06999 16.108 5.83999C16.35 5.60999 16.67 5.48999 17 5.48999C17.391 5.48999 17.689 5.60999 17.91 5.83999C18.13 6.07999 18.25 6.39999 18.24 6.72999C18.25 7.06999 18.13 7.39999 17.891 7.64999Z" fill="#FF9B00"/>
</svg>
