<svg width="24" height="24" viewBox="0 0 24 24" fill="none" xmlns="http://www.w3.org/2000/svg">
<rect x="6" y="4" width="13" height="16" fill="white"/>
<path d="M11.77 11.0476H9.956V7.23539H12.108C13.278 7.23539 13.942 7.89041 13.942 9.07498C13.942 10.3399 13.169 11.0476 11.768 11.0476H11.77ZM12.094 12.5609H9.957V16.7621H12.188C13.647 16.7621 14.42 16.028 14.42 14.6477C14.42 13.2674 13.625 12.5609 12.094 12.5609ZM24 11.2358V12.7642C22.872 12.8997 22.183 13.9488 21.774 15.6102C21.367 17.2653 21.311 19.2956 21.354 20.8629C21.399 22.4942 20.386 24 19.017 24H4.985C3.615 24 2.602 22.4942 2.648 20.8629C2.691 19.2956 2.635 17.2653 2.228 15.6102C1.818 13.9488 1.128 12.8997 0 12.7642V11.2358C1.128 11.1003 1.819 10.0512 2.227 8.38984C2.635 6.73471 2.691 4.70438 2.647 3.13709C2.602 1.5058 3.615 0 4.985 0H19.017C20.387 0 21.399 1.5058 21.354 3.13709C21.311 4.70438 21.367 6.73471 21.774 8.38984C22.183 10.0512 22.872 11.1003 24 11.2358ZM16.073 14.7707C16.073 13.0716 15.12 11.8431 13.705 11.6486V11.5771C14.745 11.3651 15.561 10.1529 15.561 8.80017C15.561 6.87149 14.348 5.61539 12.499 5.61539H8.339V18.3796H12.52C14.738 18.3796 16.073 17.0168 16.073 14.7707Z" fill="#7952B3"/>
</svg>
