<svg width="24" height="24" viewBox="0 0 24 24" fill="none" xmlns="http://www.w3.org/2000/svg">
<path d="M11.77 11.24H9.956V8.202H12.108C13.278 8.202 13.942 8.724 13.942 9.668C13.942 10.676 13.169 11.24 11.768 11.24H11.77ZM12.094 12.446H9.957V15.794H12.188C13.647 15.794 14.42 15.209 14.42 14.109C14.42 13.009 13.625 12.446 12.094 12.446V12.446ZM24 11.39V12.608C22.872 12.716 22.183 13.552 21.774 14.876C21.367 16.195 21.311 17.813 21.354 19.062C21.399 20.362 20.386 21.562 19.017 21.562H4.985C3.615 21.562 2.602 20.362 2.648 19.062C2.691 17.813 2.635 16.195 2.228 14.876C1.818 13.552 1.128 12.716 0 12.608V11.39C1.128 11.282 1.819 10.446 2.227 9.122C2.635 7.803 2.691 6.185 2.647 4.936C2.602 3.636 3.615 2.436 4.985 2.436H19.017C20.387 2.436 21.399 3.636 21.354 4.936C21.311 6.185 21.367 7.803 21.774 9.122C22.183 10.446 22.872 11.282 24 11.39ZM16.073 14.207C16.073 12.853 15.12 11.874 13.705 11.719V11.662C14.745 11.493 15.561 10.527 15.561 9.449C15.561 7.912 14.348 6.911 12.499 6.911H8.339V17.083H12.52C14.738 17.083 16.073 15.997 16.073 14.207V14.207Z" fill="#7952B3"/>
</svg>
