<svg width="17" height="24" viewBox="0 0 17 24" fill="none" xmlns="http://www.w3.org/2000/svg">
<g clip-path="url(#clip0)">
<path d="M4.08083 24C6.33254 24 8.16002 22.208 8.16002 20V16H4.08083C1.82912 16 0.00164795 17.792 0.00164795 20C0.00164795 22.208 1.82912 24 4.08083 24Z" fill="#0ACF83"/>
<path d="M0.00164795 12C0.00164795 9.79199 1.82912 8 4.08083 8H8.16002V16H4.08083C1.82912 16 0.00164795 14.208 0.00164795 12Z" fill="#A259FF"/>
<path d="M0.00250244 4.00003C0.00250244 1.79203 1.82998 3.05176e-05 4.08169 3.05176e-05H8.16087V8.00003H4.08169C1.82998 8.00003 0.00250244 6.20803 0.00250244 4.00003Z" fill="#F24E1E"/>
<path d="M8.16 3.05176e-05H12.2392C14.4909 3.05176e-05 16.3184 1.79203 16.3184 4.00003C16.3184 6.20803 14.4909 8.00003 12.2392 8.00003H8.16V3.05176e-05Z" fill="#FF7262"/>
<path d="M16.3184 12C16.3184 14.208 14.4909 16 12.2392 16C9.98749 16 8.16 14.208 8.16 12C8.16 9.79199 9.98749 8 12.2392 8C14.4909 8 16.3184 9.79199 16.3184 12Z" fill="#1ABCFE"/>
</g>
<defs>
<clipPath id="clip0">
<rect width="16.32" height="24" fill="white"/>
</clipPath>
</defs>
</svg>
