<svg width="17" height="25" viewBox="0 0 17 25" fill="none" xmlns="http://www.w3.org/2000/svg">
<path d="M4.25086 25C6.59639 25 8.50001 23.1333 8.50001 20.8333V16.6667H4.25086C1.90533 16.6667 0.00170898 18.5333 0.00170898 20.8333C0.00170898 23.1333 1.90533 25 4.25086 25Z" fill="#0ACF83"/>
<path d="M0.00170898 12.5C0.00170898 10.2 1.90533 8.33333 4.25086 8.33333H8.50001V16.6666H4.25086C1.90533 16.6666 0.00170898 14.8 0.00170898 12.5Z" fill="#A259FF"/>
<path d="M0.00251007 4.16671C0.00251007 1.86671 1.90613 4.57764e-05 4.25166 4.57764e-05H8.50081V8.33338H4.25166C1.90613 8.33338 0.00251007 6.46671 0.00251007 4.16671Z" fill="#F24E1E"/>
<path d="M8.5 3.43323e-05H12.7492C15.0947 3.43323e-05 16.9983 1.8667 16.9983 4.1667C16.9983 6.4667 15.0947 8.33337 12.7492 8.33337H8.5V3.43323e-05Z" fill="#FF7262"/>
<path d="M16.9983 12.5C16.9983 14.8 15.0947 16.6666 12.7492 16.6666C10.4036 16.6666 8.5 14.8 8.5 12.5C8.5 10.2 10.4036 8.33333 12.7492 8.33333C15.0947 8.33333 16.9983 10.2 16.9983 12.5Z" fill="#1ABCFE"/>
</svg>
