<svg width="25" height="24" viewBox="0 0 25 24" fill="none" xmlns="http://www.w3.org/2000/svg">
<path d="M23.9604 10.932C23.9595 10.932 23.9595 10.9315 23.9595 10.9315L13.4604 0.425689C12.894 -0.142059 11.9028 -0.141571 11.3384 0.4252L0.837403 10.932C0.555176 11.2159 0.398926 11.5926 0.398926 11.9927C0.398926 12.3934 0.555176 12.7705 0.838378 13.0539L11.3374 23.5597C11.6206 23.8436 11.9975 24 12.3989 24C12.8003 24 13.1772 23.8436 13.4595 23.5602L23.9595 13.0539C24.2427 12.7705 24.3989 12.3934 24.3989 11.9927C24.3989 11.5926 24.2427 11.2159 23.9604 10.932Z" fill="#EF473B"/>
<path opacity="0.1" d="M24.0799 12.6898L13.4705 23.3056C13.1853 23.5919 12.8044 23.7499 12.3989 23.7499C11.9934 23.7499 11.6124 23.5919 11.3263 23.3051L0.717896 12.6898C0.593934 12.5658 0.499207 12.4215 0.425781 12.2676C0.480347 12.5635 0.621094 12.8365 0.838318 13.0538L11.3373 23.5597C11.6205 23.8436 11.9975 23.9999 12.3989 23.9999C12.8002 23.9999 13.1772 23.8436 13.4594 23.5602L23.9594 13.0538C24.1766 12.8365 24.3175 12.5635 24.372 12.2676C24.2986 12.4215 24.2038 12.5658 24.0799 12.6898Z" fill="#010101"/>
<path d="M17.399 9.99994C17.0241 9.99994 16.677 10.11 16.3768 10.2902L14.1087 8.02215C14.2889 7.72196 14.399 7.37488 14.399 6.99995C14.399 5.89691 13.5015 4.99994 12.3989 4.99994C12.0291 4.99994 11.6867 5.1077 11.3891 5.28352L8.93536 2.82947L8.22852 3.53668L10.6822 5.99066C10.5067 6.28801 10.3989 6.63025 10.3989 6.99995C10.3989 7.92923 11.039 8.70529 11.8989 8.92887V15.0709C11.039 15.2945 10.3989 16.0706 10.3989 16.9999C10.3989 18.103 11.2964 18.9999 12.3989 18.9999C13.5015 18.9999 14.399 18.103 14.399 16.9999C14.399 16.0706 13.7589 15.2945 12.899 15.0709V8.92887C13.0757 8.88294 13.2415 8.81305 13.3959 8.72339L15.6755 11.003C15.5043 11.2977 15.399 11.6353 15.399 11.9999C15.399 13.1029 16.2964 13.9999 17.399 13.9999C18.5015 13.9999 19.3989 13.1029 19.3989 11.9999C19.3989 10.8969 18.5015 9.99994 17.399 9.99994Z" fill="white"/>
<path opacity="0.2" d="M0.837403 11.182L11.3384 0.6752C11.9028 0.108429 12.894 0.107941 13.4604 0.67569L23.9595 11.1815C23.9595 11.1815 23.9595 11.182 23.9604 11.182C24.2128 11.4358 24.3575 11.7653 24.3867 12.1178C24.3902 12.0759 24.3989 12.0352 24.3989 11.9927C24.3989 11.5926 24.2427 11.2159 23.9604 10.932C23.9595 10.932 23.9595 10.9315 23.9595 10.9315L13.4604 0.425689C12.894 -0.142059 11.9028 -0.141571 11.3384 0.4252L0.837403 10.932C0.555176 11.2159 0.398926 11.5926 0.398926 11.9927C0.398926 12.0352 0.407654 12.0759 0.411133 12.1177C0.44049 11.7652 0.585144 11.4357 0.837403 11.182Z" fill="white"/>
<path d="M18.9478 10.7503C19.2254 11.0938 19.3989 11.5248 19.3989 11.9999C19.3989 13.103 18.5014 13.9999 17.3989 13.9999C16.2964 13.9999 15.3989 13.103 15.3989 11.9999C15.3989 11.6353 15.5043 11.2977 15.6754 11.0031L13.3958 8.72339C13.2415 8.81306 13.0757 8.88295 12.8989 8.92888V15.071C13.7589 15.2945 14.3989 16.0706 14.3989 16.9999C14.3989 18.103 13.5014 18.9999 12.3989 18.9999C11.8874 18.9999 11.4251 18.8013 11.071 18.4842L14.8029 22.216L22.6058 14.4083L18.9478 10.7503ZM14.1086 8.02216L16.3767 10.2902C16.6769 10.11 17.0241 9.99995 17.3989 9.99995C17.874 9.99995 18.3052 10.1735 18.6487 10.4513L13.9711 5.77356L13.9686 5.77558C14.2341 6.11498 14.3989 6.53657 14.3989 6.99996C14.3989 7.37488 14.2888 7.72197 14.1086 8.02216Z" fill="url(#paint0_linear_192_62)"/>
<path d="M23.9604 10.932C23.9595 10.932 23.9595 10.9315 23.9595 10.9315L13.4604 0.425689C12.894 -0.142059 11.9028 -0.141571 11.3384 0.4252L0.837403 10.932C0.555176 11.2159 0.398926 11.5926 0.398926 11.9927C0.398926 12.3934 0.555176 12.7705 0.838378 13.0539L11.3374 23.5597C11.6206 23.8436 11.9975 24 12.3989 24C12.8003 24 13.1772 23.8436 13.4595 23.5602L23.9595 13.0539C24.2427 12.7705 24.3989 12.3934 24.3989 11.9927C24.3989 11.5926 24.2427 11.2159 23.9604 10.932Z" fill="url(#paint1_linear_192_62)"/>
<defs>
<linearGradient id="paint0_linear_192_62" x1="10.0682" y1="9.676" x2="18.7055" y2="18.3134" gradientUnits="userSpaceOnUse">
<stop stop-color="#010101" stop-opacity="0.1"/>
<stop offset="1" stop-color="#010101" stop-opacity="0"/>
</linearGradient>
<linearGradient id="paint1_linear_192_62" x1="2.41274" y1="7.33991" x2="22.3823" y2="16.6519" gradientUnits="userSpaceOnUse">
<stop stop-color="white" stop-opacity="0.2"/>
<stop offset="1" stop-color="white" stop-opacity="0"/>
</linearGradient>
</defs>
</svg>
