<svg width="51" height="50" viewBox="0 0 51 50" fill="none" xmlns="http://www.w3.org/2000/svg">
<g clip-path="url(#clip0_27_199)">
<path d="M49.4854 22.7751C49.4834 22.7751 49.4834 22.7741 49.4834 22.7741L27.6104 0.886854C26.4304 -0.295957 24.3654 -0.29494 23.1895 0.885836L1.31242 22.7751C0.724447 23.3665 0.398926 24.1513 0.398926 24.9849C0.398926 25.8196 0.724447 26.6053 1.31445 27.1957L23.1874 49.0829C23.7774 49.6743 24.5627 50.0001 25.3989 50.0001C26.2351 50.0001 27.0204 49.6743 27.6084 49.0839L49.4834 27.1957C50.0734 26.6053 50.3989 25.8196 50.3989 24.9849C50.3989 24.1513 50.0734 23.3665 49.4854 22.7751Z" fill="#EF473B"/>
<path opacity="0.1" d="M49.7344 26.4373L27.6315 48.5535C27.0374 49.15 26.2438 49.4792 25.399 49.4792C24.5542 49.4792 23.7606 49.15 23.1645 48.5525L1.06365 26.4373C0.805395 26.1788 0.608048 25.8782 0.455078 25.5576C0.568756 26.1742 0.861979 26.7428 1.31453 27.1956L23.1875 49.0829C23.7775 49.6743 24.5628 50 25.399 50C26.2352 50 27.0205 49.6743 27.6085 49.0839L49.4835 27.1956C49.936 26.7428 50.2294 26.1742 50.3431 25.5576C50.1901 25.8782 49.9926 26.1788 49.7344 26.4373Z" fill="#010101"/>
<path d="M35.8155 20.8333C35.0345 20.8333 34.3113 21.0625 33.6859 21.438L28.9607 16.7129C29.3361 16.0875 29.5655 15.3644 29.5655 14.5833C29.5655 12.2853 27.6958 10.4166 25.3988 10.4166C24.6282 10.4166 23.9149 10.6411 23.295 11.0074L18.183 5.89478L16.7104 7.36814L21.8223 12.4806C21.4566 13.1001 21.2321 13.8131 21.2321 14.5833C21.2321 16.5193 22.5655 18.1361 24.3571 18.6019V31.3979C22.5655 31.8637 21.2321 33.4805 21.2321 35.4166C21.2321 37.7146 23.1018 39.5833 25.3988 39.5833C27.6958 39.5833 29.5655 37.7146 29.5655 35.4166C29.5655 33.4805 28.2321 31.8637 26.4405 31.3979V18.6019C26.8087 18.5062 27.1541 18.3606 27.4757 18.1738L32.225 22.9231C31.8683 23.537 31.6488 24.2402 31.6488 24.9999C31.6488 27.2979 33.5185 29.1666 35.8155 29.1666C38.1124 29.1666 39.9821 27.2979 39.9821 24.9999C39.9821 22.702 38.1124 20.8333 35.8155 20.8333Z" fill="white"/>
<path opacity="0.2" d="M1.31242 23.2959L23.1895 1.40667C24.3654 0.225894 26.4304 0.224877 27.6104 1.40769L49.4834 23.2949C49.4834 23.2949 49.4834 23.2959 49.4854 23.2959C50.0111 23.8246 50.3125 24.511 50.3735 25.2455C50.3807 25.1582 50.3989 25.0734 50.3989 24.9849C50.3989 24.1513 50.0734 23.3665 49.4854 22.7751C49.4834 22.7751 49.4834 22.7741 49.4834 22.7741L27.6104 0.886854C26.4304 -0.295957 24.3654 -0.29494 23.1895 0.885836L1.31242 22.7751C0.724447 23.3665 0.398926 24.1513 0.398926 24.9849C0.398926 25.0733 0.417109 25.1581 0.424357 25.2452C0.485519 24.5108 0.786881 23.8245 1.31242 23.2959Z" fill="white"/>
<path d="M39.0424 22.3965C39.6209 23.1121 39.9823 24.01 39.9823 24.9999C39.9823 27.2979 38.1126 29.1666 35.8157 29.1666C33.5187 29.1666 31.649 27.2979 31.649 24.9999C31.649 24.2402 31.8685 23.537 32.2251 22.9231L27.4758 18.1738C27.1543 18.3606 26.8089 18.5062 26.4407 18.6019V31.398C28.2323 31.8637 29.5657 33.4805 29.5657 35.4166C29.5657 37.7146 27.6959 39.5833 25.399 39.5833C24.3334 39.5833 23.3702 39.1694 22.6326 38.5088L30.4072 46.2834L46.6633 30.0174L39.0424 22.3965ZM28.9609 16.7129L33.686 21.438C34.3115 21.0625 35.0347 20.8333 35.8157 20.8333C36.8054 20.8333 37.7037 21.1948 38.4194 21.7736L28.6743 12.0283L28.6692 12.0325C29.2222 12.7396 29.5657 13.6179 29.5657 14.5833C29.5657 15.3644 29.3363 16.0875 28.9609 16.7129Z" fill="url(#paint0_linear_27_199)"/>
<path d="M49.4854 22.7751C49.4834 22.7751 49.4834 22.7741 49.4834 22.7741L27.6104 0.886854C26.4304 -0.295957 24.3654 -0.29494 23.1895 0.885836L1.31242 22.7751C0.724447 23.3665 0.398926 24.1513 0.398926 24.9849C0.398926 25.8196 0.724447 26.6053 1.31445 27.1957L23.1874 49.0829C23.7774 49.6743 24.5627 50.0001 25.3989 50.0001C26.2351 50.0001 27.0204 49.6743 27.6084 49.0839L49.4834 27.1957C50.0734 26.6053 50.3989 25.8196 50.3989 24.9849C50.3989 24.1513 50.0734 23.3665 49.4854 22.7751Z" fill="url(#paint1_linear_27_199)"/>
</g>
<defs>
<linearGradient id="paint0_linear_27_199" x1="20.5433" y1="20.1584" x2="38.5377" y2="38.1529" gradientUnits="userSpaceOnUse">
<stop stop-color="#010101" stop-opacity="0.1"/>
<stop offset="1" stop-color="#010101" stop-opacity="0"/>
</linearGradient>
<linearGradient id="paint1_linear_27_199" x1="4.59438" y1="15.2915" x2="46.1976" y2="34.6914" gradientUnits="userSpaceOnUse">
<stop stop-color="white" stop-opacity="0.2"/>
<stop offset="1" stop-color="white" stop-opacity="0"/>
</linearGradient>
<clipPath id="clip0_27_199">
<rect width="50" height="50" fill="white" transform="translate(0.398926)"/>
</clipPath>
</defs>
</svg>
