<svg width="24" height="24" viewBox="0 0 24 24" fill="none" xmlns="http://www.w3.org/2000/svg">
<g clip-path="url(#clip0)">
<path d="M23.546 10.93L13.067 0.451998C12.463 -0.151002 11.485 -0.151002 10.879 0.451998L8.708 2.627L11.468 5.387C12.113 5.172 12.847 5.317 13.357 5.828C13.873 6.343 14.015 7.086 13.795 7.728L16.453 10.388C17.098 10.165 17.84 10.31 18.353 10.823C19.074 11.543 19.074 12.707 18.353 13.427C17.634 14.146 16.472 14.146 15.753 13.427C15.214 12.886 15.079 12.09 15.349 11.431L12.86 8.955V15.48C13.036 15.566 13.202 15.683 13.348 15.828C14.061 16.549 14.061 17.711 13.348 18.428C12.629 19.149 11.459 19.149 10.739 18.428C10.02 17.709 10.02 16.549 10.739 15.83C10.921 15.65 11.126 15.514 11.344 15.424V8.835C11.127 8.744 10.92 8.613 10.744 8.434C10.199 7.889 10.068 7.092 10.348 6.425L7.636 3.7L0.45 10.881C-0.15 11.486 -0.15 12.465 0.45 13.07L10.93 23.547C11.534 24.151 12.512 24.151 13.116 23.547L23.546 13.117C24.151 12.514 24.151 11.535 23.546 10.93" fill="#F94A29"/>
</g>
<defs>
<clipPath id="clip0">
<rect width="24" height="24" fill="white"/>
</clipPath>
</defs>
</svg>
