<svg width="25" height="25" viewBox="0 0 25 25" fill="none" xmlns="http://www.w3.org/2000/svg">
<path d="M15.1553 12.7404C15.1553 13.406 14.9198 14.0444 14.5008 14.5152C14.0816 14.986 13.5132 15.2507 12.9203 15.2509C12.3273 15.2509 11.7585 14.9864 11.3392 14.5156C10.9199 14.0448 10.6843 13.4062 10.6843 12.7404C10.6843 12.0747 10.9197 11.4363 11.3388 10.9655C11.758 10.4947 12.3264 10.2301 12.9193 10.2297C13.5123 10.2297 14.081 10.4942 14.5004 10.9651C14.9197 11.4359 15.1553 12.0745 15.1553 12.7404ZM17.8033 0.737549C16.4573 0.737549 14.6963 1.81544 12.9153 3.68155C11.1353 1.82555 9.3733 0.760007 8.02829 0.760007C7.61827 0.760007 7.24531 0.864428 6.92227 1.07214C5.54731 1.96253 5.23929 4.737 5.94931 8.21881C2.90529 9.27423 0.925293 10.9618 0.925293 12.7404C0.925293 14.5256 2.91529 16.2177 5.96827 17.2653C5.26429 20.7605 5.57827 23.5395 6.9563 24.4288C7.27627 24.6388 7.6463 24.7375 8.05829 24.7375C9.40329 24.7375 11.1653 23.6597 12.9463 21.7913C14.7263 23.6484 16.4883 24.714 17.8333 24.714C18.2433 24.714 18.6163 24.6129 18.9393 24.4052C20.3133 23.5159 20.6223 20.7415 19.9123 17.2585C22.9453 16.2121 24.9253 14.5211 24.9253 12.7404C24.9253 10.9551 22.9353 9.26302 19.8823 8.21321C20.5863 4.72126 20.2723 1.94008 18.8943 1.04969C18.5763 0.843091 18.2063 0.73867 17.8023 0.737549H17.8033ZM17.7983 1.96141V1.96814C18.0233 1.96814 18.2043 2.01755 18.3563 2.11074C19.0223 2.53965 19.3113 4.17109 19.0863 6.2696C19.0323 6.78613 18.9443 7.33068 18.8363 7.88644C17.8763 7.6215 16.8303 7.41826 15.7293 7.28686C15.0693 6.27073 14.3843 5.34779 13.6943 4.53938C15.2863 2.87762 16.7813 1.9659 17.7993 1.96253L17.7983 1.96141ZM8.02829 1.98386C9.04027 1.98386 10.5423 2.89109 12.1383 4.54386C11.4523 5.35226 10.7683 6.2696 10.1183 7.28573C9.01128 7.41713 7.9643 7.62036 7.00531 7.88984C6.89328 7.33963 6.81029 6.80742 6.7513 6.29542C6.52128 4.19804 6.8053 2.56772 7.4653 2.1332C7.65528 2.03214 7.86528 1.9906 8.02829 1.98499V1.98386ZM12.9103 5.40842C13.3653 5.93389 13.8203 6.52226 14.2703 7.16447C13.8303 7.14205 13.3803 7.12631 12.9253 7.12631C12.4653 7.12631 12.0103 7.13752 11.5653 7.16447C12.0053 6.52226 12.4603 5.93389 12.9103 5.40728V5.40842ZM12.9253 8.35694C13.6653 8.35694 14.4023 8.3951 15.1273 8.46134C15.5333 9.11481 15.9293 9.8121 16.3103 10.5498C16.6823 11.2683 17.0203 11.9982 17.3283 12.7348C17.0203 13.4702 16.6823 14.2056 16.3153 14.9242C15.9353 15.6653 15.5423 16.3704 15.1353 17.0239C14.4073 17.0946 13.6693 17.1339 12.9253 17.1339C12.1853 17.1339 11.4483 17.0946 10.7233 17.0295C10.3173 16.376 9.92131 15.6776 9.54029 14.941C9.16829 14.2225 8.83027 13.4926 8.5223 12.756C8.82528 12.0184 9.16829 11.2818 9.5353 10.5621C9.91531 9.82105 10.3083 9.11815 10.7153 8.46468C11.4433 8.39284 12.1813 8.35468 12.9253 8.35468V8.35694ZM9.2903 8.6421C9.0503 9.06539 8.8103 9.49881 8.58629 9.94457C8.36131 10.3825 8.15131 10.8226 7.9513 11.2627C7.68629 10.5262 7.46131 9.79189 7.27531 9.07665C7.9153 8.90823 8.59027 8.75889 9.2903 8.64323V8.6421ZM16.5503 8.6421C17.2453 8.75776 17.9153 8.90036 18.5563 9.07665C18.3763 9.78623 18.1513 10.5161 17.8963 11.247C17.6963 10.8091 17.4863 10.3679 17.2563 9.92884C17.0313 9.48868 16.7913 9.05978 16.5513 8.6421H16.5503ZM19.6133 9.40002C20.0973 9.56844 20.5573 9.75594 20.9883 9.95918C22.7203 10.79 23.8403 11.8769 23.8403 12.7392C23.8353 13.6015 22.7153 14.6929 20.9833 15.5182C20.5633 15.7203 20.1033 15.9022 19.6283 16.0717C19.3483 14.9961 18.9823 13.8755 18.5283 12.7258C18.9783 11.5839 19.3383 10.4689 19.6133 9.39776V9.40002ZM6.2183 9.4045C6.49627 10.4824 6.86328 11.6018 7.31827 12.7504C6.86827 13.8924 6.5063 15.0073 6.23227 16.0784C5.74829 15.91 5.2883 15.7214 4.86229 15.5171C3.13029 14.6896 2.01029 13.6015 2.01029 12.7392C2.01029 11.8769 3.13029 10.7833 4.86229 9.95918C5.2823 9.75707 5.74229 9.57518 6.2183 9.4045ZM17.8963 14.2101C18.1613 14.9478 18.3863 15.6832 18.5723 16.3973C17.9323 16.5736 17.2563 16.723 16.5563 16.8352C16.7963 16.4142 17.0363 15.9797 17.2613 15.535C17.4863 15.0971 17.6963 14.6502 17.8973 14.2101H17.8963ZM7.9513 14.2325C8.15131 14.6727 8.36131 15.1117 8.59128 15.5519C8.82129 15.9898 9.0563 16.4187 9.2963 16.8352C8.60131 16.7207 7.93128 16.577 7.29029 16.4018C7.47029 15.6944 7.69627 14.9624 7.95029 14.2315L7.9513 14.2325ZM18.8453 17.5864C18.9573 18.1399 19.0453 18.6733 19.0993 19.1841C19.3293 21.2815 19.0453 22.9119 18.3853 23.3475C18.2383 23.4485 18.0473 23.4912 17.8223 23.4912C16.8103 23.4912 15.3083 22.5852 13.7123 20.9312C14.3983 20.1228 15.0823 19.2066 15.7323 18.1916C16.8393 18.0591 17.8863 17.8548 18.8453 17.5853V17.5864ZM7.0153 17.5976C7.9753 17.8604 9.02131 18.0636 10.1223 18.1949C10.7823 19.2111 11.4673 20.134 12.1573 20.9414C10.5623 22.6064 9.06528 23.5182 8.0473 23.5182C7.82731 23.5126 7.64131 23.462 7.49429 23.37C6.82829 22.9433 6.53928 21.3108 6.7643 19.2122C6.8183 18.6957 6.90629 18.1523 7.01429 17.5976H7.0153ZM11.5753 18.3162C12.0153 18.3387 12.4653 18.3544 12.9203 18.3544C13.3803 18.3544 13.8353 18.3432 14.2803 18.3162C13.8403 18.9585 13.3853 19.5457 12.9353 20.0734C12.4803 19.5457 12.0253 18.9585 11.5753 18.3162Z" fill="#61DAFB"/>
</svg>
