<svg width="94" height="95" viewBox="0 0 94 95" fill="none" xmlns="http://www.w3.org/2000/svg">
<g filter="url(#filter0_d_22_169)">
<rect x="10.9253" y="6" width="72.7147" height="75" rx="15" fill="white"/>
<g clip-path="url(#clip0_22_169)">
<path d="M52.5711 44.0084C52.5711 45.2435 52.0806 46.428 51.2075 47.3016C50.3343 48.1751 49.15 48.6662 47.9149 48.6667C46.6794 48.6667 45.4945 48.1759 44.6209 47.3023C43.7473 46.4287 43.2565 45.2439 43.2565 44.0084C43.2565 42.7733 43.747 41.5887 44.6202 40.7152C45.4934 39.8416 46.6777 39.3506 47.9128 39.35C49.1483 39.35 50.3331 39.8408 51.2067 40.7144C52.0803 41.5881 52.5711 42.7729 52.5711 44.0084ZM58.0878 21.7375C55.2836 21.7375 51.6149 23.7375 47.9045 27.2C44.1961 23.7563 40.5253 21.7792 37.7232 21.7792C36.869 21.7792 36.092 21.973 35.419 22.3584C32.5545 24.0105 31.9128 29.1584 33.392 35.6188C27.0503 37.5771 22.9253 40.7084 22.9253 44.0084C22.9253 47.3209 27.0711 50.4605 33.4315 52.4042C31.9649 58.8896 32.619 64.0459 35.4899 65.6959C36.1565 66.0855 36.9274 66.2688 37.7857 66.2688C40.5878 66.2688 44.2586 64.2688 47.969 60.8021C51.6774 64.248 55.3482 66.2251 58.1503 66.2251C59.0045 66.2251 59.7815 66.0376 60.4545 65.6521C63.317 64.0021 63.9607 58.8542 62.4815 52.3917C68.8003 50.4501 72.9253 47.3125 72.9253 44.0084C72.9253 40.6959 68.7795 37.5563 62.419 35.6084C63.8857 29.1292 63.2315 23.9688 60.3607 22.3167C59.6982 21.9334 58.9274 21.7396 58.0857 21.7375H58.0878ZM58.0774 24.0084V24.0209C58.5461 24.0209 58.9232 24.1125 59.2399 24.2855C60.6274 25.0813 61.2295 28.1084 60.7607 32.0021C60.6482 32.9605 60.4649 33.9709 60.2399 35.0021C58.2399 34.5105 56.0607 34.1334 53.767 33.8896C52.392 32.0042 50.9649 30.2917 49.5274 28.7917C52.844 25.7084 55.9586 24.0167 58.0795 24.0105L58.0774 24.0084ZM37.7232 24.05C39.8315 24.05 42.9607 25.7334 46.2857 28.8C44.8565 30.3 43.4315 32.0021 42.0774 33.8875C39.7711 34.1313 37.5899 34.5084 35.592 35.0084C35.3586 33.9875 35.1857 33 35.0628 32.05C34.5836 28.1584 35.1753 25.1334 36.5503 24.3271C36.9461 24.1396 37.3836 24.0625 37.7232 24.0521V24.05ZM47.894 30.4042C48.842 31.3792 49.7899 32.4709 50.7274 33.6625C49.8107 33.6209 48.8732 33.5917 47.9253 33.5917C46.967 33.5917 46.019 33.6125 45.092 33.6625C46.0086 32.4709 46.9565 31.3792 47.894 30.4021V30.4042ZM47.9253 35.8751C49.467 35.8751 51.0024 35.9459 52.5128 36.0688C53.3586 37.2813 54.1836 38.5751 54.9774 39.9438C55.7524 41.2771 56.4565 42.6313 57.0982 43.998C56.4565 45.3625 55.7524 46.7271 54.9878 48.0605C54.1961 49.4355 53.3774 50.7438 52.5295 51.9563C51.0128 52.0876 49.4753 52.1605 47.9253 52.1605C46.3836 52.1605 44.8482 52.0876 43.3378 51.9667C42.492 50.7542 41.667 49.4584 40.8732 48.0917C40.0982 46.7584 39.394 45.4042 38.7524 44.0375C39.3836 42.6688 40.0982 41.3021 40.8628 39.9667C41.6545 38.5917 42.4732 37.2875 43.3211 36.075C44.8378 35.9417 46.3753 35.8709 47.9253 35.8709V35.8751ZM40.3524 36.4042C39.8524 37.1896 39.3524 37.9938 38.8857 38.8209C38.417 39.6334 37.9795 40.4501 37.5628 41.2667C37.0107 39.9 36.542 38.5375 36.1545 37.2105C37.4878 36.898 38.894 36.6209 40.3524 36.4063V36.4042ZM55.4774 36.4042C56.9253 36.6188 58.3211 36.8834 59.6565 37.2105C59.2815 38.5271 58.8128 39.8813 58.2815 41.2375C57.8649 40.425 57.4274 39.6063 56.9482 38.7917C56.4795 37.975 55.9795 37.1792 55.4795 36.4042H55.4774ZM61.8586 37.8105C62.867 38.123 63.8253 38.4709 64.7232 38.848C68.3315 40.3896 70.6649 42.4063 70.6649 44.0063C70.6545 45.6063 68.3211 47.6313 64.7128 49.1625C63.8378 49.5375 62.8795 49.875 61.8899 50.1896C61.3065 48.1938 60.544 46.1146 59.5982 43.9813C60.5357 41.8626 61.2857 39.7938 61.8586 37.8063V37.8105ZM33.9524 37.8188C34.5315 39.8188 35.2961 41.8959 36.244 44.0271C35.3065 46.1459 34.5524 48.2146 33.9815 50.2021C32.9732 49.8896 32.0149 49.5396 31.1274 49.1605C27.519 47.6251 25.1857 45.6063 25.1857 44.0063C25.1857 42.4063 27.519 40.3771 31.1274 38.848C32.0024 38.473 32.9607 38.1355 33.9524 37.8188ZM58.2815 46.7355C58.8336 48.1042 59.3024 49.4688 59.6899 50.7938C58.3565 51.1209 56.9482 51.398 55.4899 51.6063C55.9899 50.8251 56.4899 50.0188 56.9586 49.1938C57.4274 48.3813 57.8649 47.5521 58.2836 46.7355H58.2815ZM37.5628 46.7771C37.9795 47.5938 38.417 48.4084 38.8961 49.2251C39.3753 50.0376 39.8649 50.8334 40.3649 51.6063C38.917 51.3938 37.5211 51.1271 36.1857 50.8021C36.5607 49.4896 37.0315 48.1313 37.5607 46.775L37.5628 46.7771ZM60.2586 53C60.492 54.0271 60.6753 55.0167 60.7878 55.9646C61.267 59.8563 60.6753 62.8813 59.3003 63.6896C58.994 63.8771 58.5961 63.9563 58.1274 63.9563C56.019 63.9563 52.8899 62.2751 49.5649 59.2063C50.994 57.7063 52.419 56.0063 53.7732 54.123C56.0795 53.8771 58.2607 53.498 60.2586 52.998V53ZM35.6128 53.0209C37.6128 53.5084 39.792 53.8855 42.0857 54.1292C43.4607 56.0146 44.8878 57.7271 46.3253 59.2251C43.0024 62.3146 39.8836 64.0063 37.7628 64.0063C37.3045 63.9959 36.917 63.9021 36.6107 63.7313C35.2232 62.9396 34.6211 59.9105 35.0899 56.0167C35.2024 55.0584 35.3857 54.0501 35.6107 53.0209H35.6128ZM45.1128 54.3542C46.0295 54.3959 46.967 54.425 47.9149 54.425C48.8732 54.425 49.8211 54.4042 50.7482 54.3542C49.8315 55.5459 48.8836 56.6355 47.9461 57.6146C46.9982 56.6355 46.0503 55.5459 45.1128 54.3542Z" fill="#61DAFB"/>
</g>
</g>
<defs>
<filter id="filter0_d_22_169" x="0.925293" y="0" width="92.7146" height="95" filterUnits="userSpaceOnUse" color-interpolation-filters="sRGB">
<feFlood flood-opacity="0" result="BackgroundImageFix"/>
<feColorMatrix in="SourceAlpha" type="matrix" values="0 0 0 0 0 0 0 0 0 0 0 0 0 0 0 0 0 0 127 0" result="hardAlpha"/>
<feOffset dy="4"/>
<feGaussianBlur stdDeviation="5"/>
<feComposite in2="hardAlpha" operator="out"/>
<feColorMatrix type="matrix" values="0 0 0 0 0 0 0 0 0 0 0 0 0 0 0 0 0 0 0.08 0"/>
<feBlend mode="normal" in2="BackgroundImageFix" result="effect1_dropShadow_22_169"/>
<feBlend mode="normal" in="SourceGraphic" in2="effect1_dropShadow_22_169" result="shape"/>
</filter>
<clipPath id="clip0_22_169">
<rect width="50" height="50" fill="white" transform="translate(22.9253 19)"/>
</clipPath>
</defs>
</svg>
