<svg width="51" height="50" viewBox="0 0 51 50" fill="none" xmlns="http://www.w3.org/2000/svg">
<g clip-path="url(#clip0_27_224)">
<path d="M30.5711 25.0084C30.5711 26.2435 30.0806 27.428 29.2075 28.3016C28.3343 29.1751 27.15 29.6662 25.9149 29.6667C24.6794 29.6667 23.4945 29.1759 22.6209 28.3023C21.7473 27.4287 21.2565 26.2438 21.2565 25.0084C21.2565 23.7733 21.747 22.5887 22.6202 21.7152C23.4934 20.8416 24.6777 20.3506 25.9128 20.35C27.1483 20.35 28.3331 20.8408 29.2067 21.7144C30.0803 22.5881 30.5711 23.7729 30.5711 25.0084V25.0084ZM36.0878 2.73755C33.2836 2.73755 29.6149 4.73755 25.9045 8.20005C22.1961 4.7563 18.5253 2.77922 15.7232 2.77922C14.869 2.77922 14.092 2.97297 13.419 3.35838C10.5545 5.01047 9.91279 10.1584 11.392 16.6188C5.05029 18.5771 0.925293 21.7084 0.925293 25.0084C0.925293 28.3209 5.07113 31.4605 11.4315 33.4042C9.96488 39.8896 10.619 45.0459 13.4899 46.6959C14.1565 47.0855 14.9274 47.2688 15.7857 47.2688C18.5878 47.2688 22.2586 45.2688 25.969 41.8021C29.6774 45.248 33.3482 47.2251 36.1503 47.2251C37.0045 47.2251 37.7815 47.0376 38.4545 46.6521C41.317 45.0021 41.9607 39.8542 40.4815 33.3917C46.8003 31.4501 50.9253 28.3125 50.9253 25.0084C50.9253 21.6959 46.7795 18.5563 40.419 16.6084C41.8857 10.1292 41.2315 4.9688 38.3607 3.31672C37.6982 2.93338 36.9274 2.73963 36.0857 2.73755H36.0878ZM36.0774 5.00838V5.02088C36.5461 5.02088 36.9232 5.11255 37.2399 5.28547C38.6274 6.0813 39.2295 9.10838 38.7607 13.0021C38.6482 13.9605 38.4649 14.9709 38.2399 16.0021C36.2399 15.5105 34.0607 15.1334 31.767 14.8896C30.392 13.0042 28.9649 11.2917 27.5274 9.79172C30.844 6.70838 33.9586 5.01672 36.0795 5.01047L36.0774 5.00838ZM15.7232 5.05005C17.8315 5.05005 20.9607 6.73338 24.2857 9.80005C22.8565 11.3 21.4315 13.0021 20.0774 14.8875C17.7711 15.1313 15.5899 15.5084 13.592 16.0084C13.3586 14.9875 13.1857 14 13.0628 13.05C12.5836 9.15838 13.1753 6.13338 14.5503 5.32713C14.9461 5.13963 15.3836 5.06255 15.7232 5.05213V5.05005ZM25.894 11.4042C26.842 12.3792 27.7899 13.4709 28.7274 14.6625C27.8107 14.6209 26.8732 14.5917 25.9253 14.5917C24.967 14.5917 24.019 14.6125 23.092 14.6625C24.0086 13.4709 24.9565 12.3792 25.894 11.4021V11.4042ZM25.9253 16.8751C27.467 16.8751 29.0024 16.9459 30.5128 17.0688C31.3586 18.2813 32.1836 19.5751 32.9774 20.9438C33.7524 22.2771 34.4565 23.6313 35.0982 24.998C34.4565 26.3625 33.7524 27.7271 32.9878 29.0605C32.1961 30.4355 31.3774 31.7438 30.5295 32.9563C29.0128 33.0876 27.4753 33.1605 25.9253 33.1605C24.3836 33.1605 22.8482 33.0876 21.3378 32.9667C20.492 31.7542 19.667 30.4584 18.8732 29.0917C18.0982 27.7584 17.394 26.4042 16.7524 25.0375C17.3836 23.6688 18.0982 22.3021 18.8628 20.9667C19.6545 19.5917 20.4732 18.2875 21.3211 17.075C22.8378 16.9417 24.3753 16.8709 25.9253 16.8709V16.8751ZM18.3524 17.4042C17.8524 18.1896 17.3524 18.9938 16.8857 19.8209C16.417 20.6334 15.9795 21.45 15.5628 22.2667C15.0107 20.9 14.542 19.5376 14.1545 18.2105C15.4878 17.898 16.894 17.6209 18.3524 17.4063V17.4042ZM33.4774 17.4042C34.9253 17.6188 36.3211 17.8834 37.6565 18.2105C37.2815 19.5271 36.8128 20.8813 36.2815 22.2375C35.8649 21.425 35.4274 20.6063 34.9482 19.7917C34.4795 18.975 33.9795 18.1792 33.4795 17.4042H33.4774ZM39.8586 18.8105C40.867 19.123 41.8253 19.4709 42.7232 19.848C46.3315 21.3896 48.6649 23.4063 48.6649 25.0063C48.6545 26.6063 46.3211 28.6313 42.7128 30.1625C41.8378 30.5376 40.8795 30.8751 39.8899 31.1896C39.3065 29.1938 38.544 27.1146 37.5982 24.9813C38.5357 22.8626 39.2857 20.7938 39.8586 18.8063V18.8105ZM11.9524 18.8188C12.5315 20.8188 13.2961 22.8959 14.244 25.0271C13.3065 27.1459 12.5524 29.2146 11.9815 31.2021C10.9732 30.8896 10.0149 30.5396 9.12738 30.1605C5.51904 28.6251 3.18571 26.6063 3.18571 25.0063C3.18571 23.4063 5.51904 21.3771 9.12738 19.848C10.0024 19.473 10.9607 19.1355 11.9524 18.8188V18.8188ZM36.2815 27.7355C36.8336 29.1042 37.3024 30.4688 37.6899 31.7938C36.3565 32.1209 34.9482 32.398 33.4899 32.6063C33.9899 31.8251 34.4899 31.0188 34.9586 30.1938C35.4274 29.3813 35.8649 28.5521 36.2836 27.7355H36.2815ZM15.5628 27.7771C15.9795 28.5938 16.417 29.4084 16.8961 30.2251C17.3753 31.0376 17.8649 31.8334 18.3649 32.6063C16.917 32.3938 15.5211 32.1271 14.1857 31.8021C14.5607 30.4896 15.0315 29.1313 15.5607 27.7751L15.5628 27.7771ZM38.2586 34.0001C38.492 35.0271 38.6753 36.0167 38.7878 36.9646C39.267 40.8563 38.6753 43.8813 37.3003 44.6896C36.994 44.8771 36.5961 44.9563 36.1274 44.9563C34.019 44.9563 30.8899 43.2751 27.5649 40.2063C28.994 38.7063 30.419 37.0063 31.7732 35.123C34.0795 34.8771 36.2607 34.498 38.2586 33.998V34.0001ZM13.6128 34.0209C15.6128 34.5084 17.792 34.8855 20.0857 35.1292C21.4607 37.0146 22.8878 38.7271 24.3253 40.2251C21.0024 43.3146 17.8836 45.0063 15.7628 45.0063C15.3045 44.9959 14.917 44.9021 14.6107 44.7313C13.2232 43.9396 12.6211 40.9105 13.0899 37.0167C13.2024 36.0584 13.3857 35.0501 13.6107 34.0209H13.6128ZM23.1128 35.3542C24.0295 35.3959 24.967 35.4251 25.9149 35.4251C26.8732 35.4251 27.8211 35.4042 28.7482 35.3542C27.8315 36.5459 26.8836 37.6355 25.9461 38.6146C24.9982 37.6355 24.0503 36.5459 23.1128 35.3542Z" fill="#61DAFB"/>
</g>
<defs>
<clipPath id="clip0_27_224">
<rect width="50" height="50" fill="white" transform="translate(0.925293)"/>
</clipPath>
</defs>
</svg>
